<mxfile host="app.diagrams.net" modified="2023-08-15T12:15:32.984Z" agent="Mozilla/5.0 (Windows NT 6.1; Win64; x64; rv:109.0) Gecko/20100101 Firefox/115.0" version="21.6.8" etag="AKj5wY1UnAMStV5QjndI" type="github">
  <diagram name="Page-1" id="syQc0hYM9a44fGsDJ0LF">
    <mxGraphModel>
      <root>
        <mxCell id="0" />
        <mxCell id="1" parent="0" />
      </root>
    </mxGraphModel>
  </diagram>
</mxfile>
